<svg width="140" height="140" viewBox="0 0 140 140" fill="none" xmlns="http://www.w3.org/2000/svg">
<g clip-path="url(#clip0_3160_75)">
<rect width="140" height="140" rx="30" fill="white"/>
<path d="M117.775 39.2241C117.734 39.0903 117.695 38.9585 117.641 38.8247C86.1332 38.8383 54.6388 38.8247 23.1444 38.8383C23.0649 38.9313 23.0106 39.0244 22.999 39.1446C22.999 63.5763 22.9989 87.9963 22.9854 112.428C23.185 113.731 23.9023 114.915 24.8601 115.807C24.9008 115.821 24.9939 115.834 25.0326 115.848C25.5251 116.366 26.2289 116.619 26.8938 116.858C27.3863 116.831 27.8651 117.044 28.3575 116.992H67.4594C67.8317 116.978 68.2175 117.044 68.5762 116.899C68.5898 116.846 68.6033 116.753 68.6169 116.699C68.6305 116.633 68.644 116.486 68.6576 116.406C69.4951 111.724 70.3075 107.031 71.1973 102.349L71.2769 101.75C67.6592 101.736 64.0279 101.75 60.4103 101.736C59.5321 101.709 58.6287 101.736 57.7504 101.629C56.2479 101.563 54.7318 101.616 53.2293 101.47C51.3681 101.47 49.5186 101.298 47.6575 101.298C46.1938 101.152 44.7183 101.205 43.241 101.139C42.2833 101.019 41.2984 101.073 40.3291 101.032C38.7471 100.86 37.138 100.98 35.5541 100.805C33.879 100.819 32.202 100.672 30.5269 100.633C30.5405 100.619 30.5541 100.567 30.5541 100.553C31.1124 100.567 31.6572 100.526 32.2175 100.513C33.4544 100.354 34.7049 100.46 35.9418 100.286C37.231 100.286 38.5087 100.113 39.7979 100.113C40.9418 99.9543 42.0992 100.047 43.243 99.8864C44.5866 99.8864 45.9029 99.7139 47.2464 99.7003C48.3496 99.5549 49.4682 99.6344 50.5713 99.4871C51.8606 99.5006 53.1382 99.301 54.4275 99.3145C55.6915 99.1672 56.9807 99.2079 58.2448 99.0741C58.1246 98.5817 58.0315 98.0893 57.9249 97.5988C57.8318 97.2924 57.4596 97.3603 57.2192 97.3196C54.3324 96.9066 51.4612 96.4956 48.588 96.0963C48.7741 95.9489 49.0261 96.0168 49.2394 95.9896C51.4747 95.8171 53.6946 95.6174 55.93 95.4584C56.436 95.4313 56.9284 95.3382 57.4325 95.3246C57.2056 94.6325 57.0738 93.8745 56.7674 93.2367C51.9924 92.5058 47.2174 91.8544 42.4559 91.0692C43.6928 90.8695 44.9433 90.7764 46.1802 90.6446L46.2867 90.6039C50.2378 90.1909 54.2007 89.7256 58.1498 89.3398C63.1633 89.3127 68.1651 89.3263 73.1786 89.3398C73.3376 89.3127 73.6169 89.3922 73.644 89.1673C74.057 87.0134 74.4544 84.8575 74.8674 82.7036C75.4393 79.7122 76.3427 76.7595 77.7405 74.0318C79.9351 69.6425 83.4054 65.9182 87.6357 63.4444C91.5868 61.1296 96.1622 60.0129 100.71 59.7996C102.186 59.6659 103.677 59.7066 105.138 59.8927C106.096 60.1195 107.081 60.3851 107.839 61.0365C108.463 61.5426 108.837 62.287 109.117 63.0315C109.729 64.7996 110.074 66.6356 110.367 68.4851C110.381 69.2296 110.512 70.0671 110.115 70.7456C109.743 71.4106 108.998 71.7305 108.293 71.9302C105.726 72.5952 103.039 71.9709 100.472 72.5952C98.3568 73.0469 96.3889 74.2179 95.0454 75.9065C93.4634 77.8743 92.624 80.3209 92.1587 82.7695C91.8001 84.9506 91.3483 87.1317 90.9877 89.3263C93.5139 89.3398 96.0555 89.3127 98.5952 89.3398C99.6053 89.3398 100.642 89.8982 101.055 90.8559C101.587 92.0792 101.468 93.4635 101.294 94.7527C101.081 96.2029 100.736 97.6395 100.084 98.9694C99.5394 100.1 98.634 101.137 97.3971 101.536C96.7593 101.788 96.0671 101.736 95.3886 101.736C93.1532 101.736 90.9199 101.763 88.6846 101.736C88.3259 103.372 88.0854 105.047 87.7675 106.711C87.182 109.943 86.6101 113.188 86.0246 116.433C86.011 116.54 85.9975 116.767 85.9975 116.885C87.0482 116.937 88.0991 116.885 89.1498 116.912C96.9435 116.912 104.751 116.899 112.558 116.912C113.395 116.939 114.247 116.74 114.979 116.327C115.417 116.168 115.685 115.782 116.071 115.569C116.443 115.355 116.55 114.917 116.87 114.638C117.215 114.025 117.575 113.388 117.6 112.67C117.641 112.67 117.746 112.657 117.8 112.643C117.759 88.1708 117.8 63.6984 117.773 39.226L117.775 39.2241Z" fill="url(#paint0_linear_3160_75)" stroke="#FCD109" stroke-width="0.00581614" stroke-miterlimit="1.19"/>
<path d="M35.392 23.1308C36.5223 22.7721 37.7069 23.0106 38.8643 22.9311C60.5837 22.9447 82.3031 22.9311 104.021 22.9311C105.31 22.8788 106.442 23.6097 107.638 23.9819C108.596 24.3677 109.592 24.674 110.55 25.085C110.75 25.1645 110.895 25.337 111.043 25.4844C111.029 27.2409 111.043 29.009 111.043 30.7771C111.056 31.2424 110.977 31.7212 111.136 32.173C111.415 32.2137 111.562 32.425 111.748 32.5995C112.627 32.9988 113.371 33.6503 114.168 34.1815C115.364 35.0326 116.642 35.777 117.813 36.6553C117.865 37.0004 117.826 37.361 117.719 37.6789C117.599 38.0511 117.679 38.4505 117.64 38.8227C86.1321 38.8363 54.6377 38.8227 23.1433 38.8363C23.0774 38.3982 23.1956 37.9581 23.0095 37.5471C22.9824 37.202 22.8641 36.7483 23.1956 36.5099C24.5256 35.5793 25.9349 34.7417 27.2378 33.7569C28.0501 33.2373 28.8334 32.7061 29.6186 32.1749C29.7775 31.9093 29.7251 31.5758 29.7251 31.2831C29.7251 29.3541 29.7252 27.427 29.7388 25.498C30.1905 24.9125 30.9756 24.8465 31.5999 24.5538C32.8639 24.0749 34.1416 23.6096 35.3901 23.1308M35.4734 23.3576C33.7712 24.009 32.0555 24.6352 30.3533 25.2866C30.1265 25.3273 30.0063 25.5251 29.8881 25.6996C29.9016 25.8062 29.9151 25.9923 29.9151 26.099C29.9016 27.6945 29.9152 29.2901 29.9016 30.8876C29.9152 31.287 29.8608 31.6863 30.0082 32.045C29.8356 32.2175 29.6496 32.3901 29.4363 32.5239C27.5073 33.7743 25.6461 35.1314 23.7171 36.3683C23.3837 36.568 23.0114 36.8336 23.118 37.2718C23.0521 37.5102 23.1704 37.7099 23.4243 37.644C27.6003 37.6169 31.7627 37.6711 35.9407 37.6033C42.1523 37.6033 48.3504 37.6169 54.5601 37.6033L54.6532 37.5626C54.9323 37.6285 55.2115 37.6033 55.5043 37.6033C66.7566 37.6033 78.0088 37.6169 89.2727 37.6033C92.8109 37.6169 96.3627 37.6033 99.9125 37.6033C105.765 37.6033 111.63 37.6556 117.481 37.6304C117.654 37.5897 117.708 37.4715 117.64 37.2582C117.626 37.0449 117.706 36.7522 117.481 36.6204C116.55 36.1822 115.752 35.5037 114.862 34.9705C114.542 34.7049 114.131 34.5576 113.891 34.1989C112.974 33.6793 112.123 33.0415 111.217 32.4696C111.045 32.3629 110.911 32.1904 110.765 32.0431C110.845 31.7639 110.872 31.4576 110.872 31.1648C110.858 29.4762 110.872 27.7856 110.858 26.097C110.899 25.8314 110.886 25.5251 110.645 25.3526C109.05 24.7806 107.468 24.168 105.884 23.5844C105.391 23.346 104.846 23.2122 104.313 23.1327H36.3362C36.0434 23.1463 35.7643 23.2917 35.4715 23.3596L35.4734 23.3576Z" fill="#F8F3B5"/>
<path d="M35.392 23.1308C36.5223 22.7721 37.7069 23.0106 38.8643 22.9311C60.5837 22.9447 82.3031 22.9311 104.021 22.9311C105.31 22.8788 106.442 23.6097 107.638 23.9819C108.596 24.3677 109.592 24.674 110.55 25.085C110.75 25.1645 110.895 25.337 111.043 25.4844C111.029 27.2409 111.043 29.009 111.043 30.7771C111.056 31.2424 110.977 31.7212 111.136 32.173C111.415 32.2137 111.562 32.425 111.748 32.5995C112.627 32.9988 113.371 33.6503 114.168 34.1815C115.364 35.0326 116.642 35.777 117.813 36.6553C117.865 37.0004 117.826 37.361 117.719 37.6789C117.599 38.0511 117.679 38.4505 117.64 38.8227C86.1321 38.8363 54.6377 38.8227 23.1433 38.8363C23.0774 38.3982 23.1956 37.9581 23.0095 37.5471C22.9824 37.202 22.8641 36.7483 23.1956 36.5099C24.5256 35.5793 25.9349 34.7417 27.2378 33.7569C28.0501 33.2373 28.8334 32.7061 29.6186 32.1749C29.7775 31.9093 29.7251 31.5758 29.7251 31.2831C29.7251 29.3541 29.7252 27.427 29.7388 25.498C30.1905 24.9125 30.9756 24.8465 31.5999 24.5538C32.8639 24.0749 34.1416 23.6096 35.3901 23.1308M35.4734 23.3576C33.7712 24.009 32.0555 24.6352 30.3533 25.2866C30.1265 25.3273 30.0063 25.5251 29.8881 25.6996C29.9016 25.8062 29.9151 25.9923 29.9151 26.099C29.9016 27.6945 29.9152 29.2901 29.9016 30.8876C29.9152 31.287 29.8608 31.6863 30.0082 32.045C29.8356 32.2175 29.6496 32.3901 29.4363 32.5239C27.5073 33.7743 25.6461 35.1314 23.7171 36.3683C23.3837 36.568 23.0114 36.8336 23.118 37.2718C23.0521 37.5102 23.1704 37.7099 23.4243 37.644C27.6003 37.6169 31.7627 37.6711 35.9407 37.6033C42.1523 37.6033 48.3504 37.6169 54.5601 37.6033L54.6532 37.5626C54.9323 37.6285 55.2115 37.6033 55.5043 37.6033C66.7566 37.6033 78.0088 37.6169 89.2727 37.6033C92.8109 37.6169 96.3627 37.6033 99.9125 37.6033C105.765 37.6033 111.63 37.6556 117.481 37.6304C117.654 37.5897 117.708 37.4715 117.64 37.2582C117.626 37.0449 117.706 36.7522 117.481 36.6204C116.55 36.1822 115.752 35.5037 114.862 34.9705C114.542 34.7049 114.131 34.5576 113.891 34.1989C112.974 33.6793 112.123 33.0415 111.217 32.4696C111.045 32.3629 110.911 32.1904 110.765 32.0431C110.845 31.7639 110.872 31.4576 110.872 31.1648C110.858 29.4762 110.872 27.7856 110.858 26.097C110.899 25.8314 110.886 25.5251 110.645 25.3526C109.05 24.7806 107.468 24.168 105.884 23.5844C105.391 23.346 104.846 23.2122 104.313 23.1327H36.3362C36.0434 23.1463 35.7643 23.2917 35.4715 23.3596L35.4734 23.3576Z" stroke="#F8F3B5" stroke-width="0.00581614" stroke-miterlimit="1.19"/>
<path d="M29.913 26.0967C31.084 26.5891 32.3325 26.8683 33.5171 27.3471C34.1549 27.5992 34.3547 28.2913 34.6338 28.8496C34.3547 29.1288 34.0212 29.3556 33.6897 29.567C32.4663 30.3909 31.2159 31.1897 30.0061 32.0408C29.8607 31.6821 29.913 31.2827 29.8994 30.8833C29.913 29.2878 29.8995 27.6922 29.913 26.0947V26.0967ZM107.252 27.3471C108.437 26.8818 109.674 26.562 110.856 26.0967C110.87 27.7853 110.856 29.4758 110.87 31.1645C110.87 31.4572 110.843 31.7635 110.763 32.0427C109.726 31.3254 108.675 30.6468 107.638 29.9411C107.132 29.5689 106.574 29.2897 106.122 28.838C106.401 28.2797 106.614 27.6011 107.252 27.3491V27.3471Z" fill="#F7B402" stroke="#F7B402" stroke-width="0.00581614" stroke-miterlimit="1.19"/>
<path d="M50.2098 27.8922C51.6735 27.5471 53.3078 28.8499 53.1896 30.3796C53.2032 31.8821 51.6192 33.1054 50.1709 32.7603C49.5855 32.5606 49.0271 32.2543 48.6684 31.7367C48.2032 31.031 48.0966 30.0868 48.4688 29.3152C48.7344 28.5708 49.4536 28.0647 50.2117 27.8922H50.2098ZM88.1542 28.7317C88.7669 28.0531 89.7362 27.6673 90.6416 27.9077C91.3202 28.1074 91.9851 28.5456 92.2779 29.2105C92.8634 30.3544 92.4116 31.8976 91.2678 32.4947C90.2558 33.0531 88.9802 32.7875 88.2086 31.9751C87.4234 31.0833 87.371 29.6215 88.1562 28.7297L88.1542 28.7317Z" fill="#BDA727" stroke="#BDA727" stroke-width="0.00581614" stroke-miterlimit="1.19"/>
<path d="M33.69 29.5693C34.0235 29.356 34.355 29.1311 34.6342 28.852L34.7272 28.945C34.8203 29.6371 34.7544 30.3409 34.7796 31.033C34.7389 33.1074 34.8203 35.1954 34.7272 37.2698C30.8576 37.2698 26.9859 37.2427 23.1163 37.2698C23.0096 36.8317 23.3818 36.5642 23.7153 36.3664C25.6443 35.1295 27.5055 33.7724 29.4345 32.5219C29.6478 32.3882 29.8339 32.2156 30.0065 32.0431C31.2162 31.192 32.4667 30.3932 33.69 29.5693ZM105.99 29.3037C105.99 29.1311 106.031 28.9838 106.124 28.8384C106.576 29.2901 107.136 29.5693 107.64 29.9415C108.678 30.6472 109.728 31.3238 110.766 32.0431C110.911 32.1885 111.045 32.363 111.217 32.4696C112.123 33.0415 112.972 33.6793 113.891 34.1989C114.129 34.5576 114.542 34.7049 114.862 34.9705C115.754 35.5017 116.551 36.1803 117.481 36.6204C117.708 36.7542 117.627 37.0469 117.64 37.2582C113.771 37.2718 109.912 37.2446 106.043 37.2718C105.977 36.7406 106.016 36.2074 106.002 35.6898C106.002 33.5611 105.975 31.4343 105.989 29.3056L105.99 29.3037Z" fill="#F7E62D" stroke="#F7E62D" stroke-width="0.00581614" stroke-miterlimit="1.19"/>
<path d="M117.641 37.2564C113.771 37.2699 109.913 37.2428 106.043 37.2699C105.977 36.7387 106.016 36.2056 106.002 35.6879C106.002 33.5592 105.975 31.4325 105.989 29.3038C105.989 29.1312 106.03 28.9839 106.123 28.8385C106.402 28.2801 106.615 27.6016 107.253 27.3495C108.438 26.8842 109.674 26.5644 110.857 26.0991C110.898 25.8335 110.884 25.5271 110.644 25.3546C109.048 24.7827 107.466 24.17 105.882 23.5865C105.39 23.348 104.845 23.2143 104.312 23.1348H36.3348C36.0421 23.1483 35.7628 23.2937 35.4701 23.3616C33.7679 24.013 32.0522 24.6392 30.35 25.2906C30.1232 25.3313 30.003 25.5291 29.8847 25.7036C29.8983 25.8102 29.9118 25.9963 29.9118 26.1029C31.0828 26.5954 32.3314 26.8745 33.5159 27.3534C34.1538 27.6054 34.3534 28.2976 34.6326 28.8559L34.7256 28.949C34.8187 29.6411 34.7528 30.3448 34.778 31.037C34.7373 33.1114 34.8187 35.1994 34.7256 37.2738C30.856 37.2738 26.9843 37.2467 23.1147 37.2738C23.0487 37.5123 23.167 37.712 23.421 37.646C27.597 37.6189 31.7594 37.6732 35.9373 37.6053C42.149 37.6053 48.3471 37.6189 54.5568 37.6053L54.6498 37.5646C54.929 37.6305 55.2082 37.6053 55.5009 37.6053C66.7532 37.6053 78.0055 37.6189 89.2694 37.6053C92.8076 37.6189 96.3594 37.6053 99.9091 37.6053C105.762 37.6053 111.627 37.6577 117.478 37.6325C117.65 37.5918 117.705 37.4735 117.639 37.2602L117.641 37.2564ZM48.4672 29.3154C48.7328 28.5709 49.4521 28.0649 50.2102 27.8924C51.6739 27.5473 53.3083 28.8501 53.19 30.3797C53.2036 31.8822 51.6196 33.1056 50.1714 32.7605C49.5859 32.5608 49.0275 32.2545 48.6689 31.7368C48.2036 31.0312 48.097 30.087 48.4692 29.3154H48.4672ZM88.1546 28.7318C88.7673 28.0533 89.7367 27.6675 90.642 27.9079C91.3206 28.1076 91.9855 28.5457 92.2783 29.2107C92.8638 30.3545 92.4121 31.8978 91.2682 32.4949C90.2562 33.0532 88.9806 32.7876 88.209 31.9753C87.4238 31.0835 87.3715 29.6217 88.1566 28.7299L88.1546 28.7318Z" fill="url(#paint1_radial_3160_75)" stroke="#FCD109" stroke-width="0.00581614" stroke-miterlimit="1.19"/>
<path d="M91.5456 43.101C91.7317 43.1417 90.5762 41.9901 90.8031 41.9377C91.0163 41.9649 91.8228 41.3387 92.798 41.8486C93.7732 42.3604 93.5308 43.5546 93.4203 43.9986C93.2885 44.5259 92.9532 44.8633 92.6875 45.1289C92.5421 45.2491 92.2126 45.4352 92.0129 45.4216C92.1331 44.7702 91.7472 44.6636 91.7201 43.9986L91.5456 43.101Z" fill="url(#paint2_linear_3160_75)" stroke="#FCD109" stroke-width="0.00581614" stroke-miterlimit="1.19"/>
<path d="M49.0266 43.8225C48.9994 44.4875 48.6137 44.5942 48.7339 45.2456C48.5342 45.2591 48.2066 45.073 48.0592 44.9528C47.7936 44.6872 47.4582 44.3499 47.3263 43.8225C47.2158 43.3786 46.9735 42.1843 47.9486 41.6725C48.9238 41.1607 49.7303 41.7869 49.9436 41.7617C50.1704 41.814 49.0149 42.9656 49.2011 42.9249L49.0266 43.8225Z" fill="url(#paint3_linear_3160_75)" stroke="#FCD109" stroke-width="0.00581614" stroke-miterlimit="1.19"/>
<path d="M89.8037 51.6198C90.0034 51.4453 90.1371 51.4453 90.4028 51.4453C88.8072 54.904 86.9441 58.3607 84.1446 61.0536C83.8461 61.3211 83.5281 61.5693 83.1986 61.7961C82.8787 62.0307 82.5646 62.2498 82.2505 62.4747C81.9442 62.6879 81.6398 62.9012 81.3451 63.1241C80.5871 63.5371 79.9221 64.109 79.0846 64.361C77.5549 65.0919 75.907 65.5843 74.2436 65.9314C73.5921 66.038 72.9272 66.197 72.2622 66.2106C71.4383 66.451 70.56 66.2765 69.7225 66.3308C69.2572 66.4102 68.8443 66.1446 68.3926 66.197C68.001 66.1408 67.6093 66.0748 67.2196 65.9973C66.8241 65.9159 66.4325 65.8228 66.0428 65.7181C59.9456 63.8162 53.9607 59.1614 52.2178 52.8664C52.1384 52.4418 52.0996 52.0114 52.0996 51.581C52.2857 51.9533 52.4796 52.3235 52.6773 52.69C55.157 58.099 60.0794 62.3545 65.8916 63.6379C66.3628 63.8531 66.8746 63.7775 67.3263 63.9636C67.7392 63.9636 68.1366 63.95 68.536 64.0838C69.9067 64.1109 71.2754 64.0974 72.6461 64.0974C72.8322 64.1109 73.0048 64.0179 73.1909 63.9772C75.4747 63.8996 77.712 63.2773 79.7942 62.3331C80.211 62.1451 80.622 61.9434 81.0253 61.7302C81.3781 61.5441 81.7231 61.3424 82.0585 61.1273C82.3881 60.914 82.708 60.6891 83.0182 60.4487C85.4804 58.4984 87.6091 55.9703 89.0534 53.0661C89.3287 52.5426 89.5807 52.0579 89.8017 51.6237L89.8037 51.6198Z" fill="#BDA727" stroke="#BDA727" stroke-width="0.00581614" stroke-miterlimit="1.19"/>
<path d="M87.6343 63.4441C91.5854 61.1293 96.1608 60.0126 100.709 59.7993C102.184 59.6656 103.675 59.7063 105.137 59.8924C106.095 60.1192 107.08 60.3848 107.838 61.0362C107.452 61.0634 107.08 60.8908 106.694 60.8366C105.602 60.6233 104.472 60.7028 103.369 60.6776C100.164 60.6776 96.9323 60.9296 93.8323 61.8079C92.2096 62.3003 90.587 62.8722 89.1116 63.7233C86.5583 65.1327 84.2571 66.9959 82.3959 69.2292C79.071 73.0466 77.1149 77.8875 76.1707 82.8216C75.719 85.4679 75.1994 88.1007 74.7883 90.7606C74.1234 90.8265 73.4448 90.7878 72.7799 90.7878C69.8543 90.7742 66.9269 90.7606 64.0014 90.7354C63.3771 90.7625 62.7645 90.6152 62.1402 90.6559C56.8204 90.6831 51.5005 90.6424 46.1807 90.6424L46.2874 90.6016C50.2384 90.1887 54.2012 89.7234 58.1503 89.3376C63.1638 89.3105 68.1657 89.324 73.1792 89.3376C73.3382 89.3105 73.6174 89.3899 73.6445 89.1651C74.0575 87.0111 74.4549 84.8553 74.8679 82.7014C75.4398 79.7099 76.3451 76.7573 77.741 74.0295C79.9356 69.6403 83.4059 65.916 87.6362 63.4422L87.6343 63.4441Z" fill="#0D69B3" stroke="#0D69B3" stroke-width="0.00581614" stroke-miterlimit="1.19"/>
<path d="M93.8331 61.808C96.9312 60.9298 100.163 60.6777 103.37 60.6777C104.473 60.7049 105.605 60.6254 106.695 60.8367C107.08 60.8891 107.453 61.0635 107.838 61.0364C108.463 61.5424 108.837 62.2869 109.116 63.0313C109.729 64.7994 110.074 66.6354 110.367 68.4849C110.38 69.2294 110.512 70.0669 110.114 70.7455C109.742 71.4105 108.998 71.7303 108.292 71.93C105.725 72.595 103.038 71.9707 100.471 72.595C98.3562 73.0467 96.3883 74.2177 95.0448 75.9063C93.4628 77.8741 92.6234 80.3208 92.1581 82.7694C91.7995 84.9504 91.3477 87.1315 90.9871 89.3261C90.8282 89.8186 90.7351 90.3498 90.642 90.8693C93.1546 90.91 95.6692 90.8693 98.1837 90.8965C99.1414 90.8693 100.099 90.9236 101.057 90.8558C101.588 92.0791 101.47 93.4633 101.295 94.7526C101.082 96.2027 100.737 97.6393 100.085 98.9693C99.5407 100.1 98.6353 101.137 97.3984 101.536C96.7606 101.788 96.0685 101.736 95.39 101.736C93.1546 101.736 90.9212 101.763 88.6859 101.736C88.3272 103.372 88.0868 105.047 87.7689 106.711C87.1834 109.942 86.6114 113.188 86.0259 116.433C86.0123 116.54 85.9988 116.767 85.9988 116.885V116.899C80.1866 116.899 74.3879 116.912 68.5756 116.899C68.5892 116.846 68.6027 116.753 68.6163 116.699C68.6299 116.633 68.6434 116.486 68.657 116.406C68.6706 116.513 68.6841 116.712 68.6977 116.805C69.0564 116.846 69.7078 117.032 69.8008 116.513C70.7043 111.617 71.5437 106.697 72.4743 101.802C72.1157 101.722 71.7434 101.722 71.3712 101.788C71.3189 101.974 71.2645 102.16 71.1986 102.347L71.2781 101.747C67.6605 101.734 64.0293 101.747 60.4117 101.734C59.5335 101.707 58.63 101.734 57.7517 101.627C56.2492 101.561 54.7332 101.614 53.2307 101.468C51.3695 101.468 49.5199 101.296 47.6588 101.296C46.195 101.15 44.7197 101.203 43.2424 101.137C42.2847 101.017 41.2998 101.071 40.3305 101.03C38.7485 100.858 37.1394 100.978 35.5554 100.803C33.8804 100.817 32.2034 100.67 30.5283 100.631C30.5419 100.617 30.5555 100.565 30.5555 100.551C31.1138 100.565 31.6586 100.524 32.2189 100.511C33.4558 100.352 34.7063 100.458 35.9432 100.284C37.2324 100.284 38.51 100.111 39.7992 100.111C40.9431 99.9522 42.1005 100.045 43.2443 99.8843C44.5878 99.8843 45.9042 99.7118 47.2477 99.6982C48.3509 99.5528 49.4696 99.6323 50.5727 99.485C51.862 99.4985 53.1395 99.2989 54.4287 99.3124C55.6928 99.1651 56.9821 99.2058 58.2462 99.072C58.126 98.5796 58.0328 98.0872 57.9262 97.5967C57.8331 97.2904 57.461 97.3563 57.2206 97.3175C54.3338 96.9045 51.4626 96.4935 48.5894 96.0942C48.7755 95.9468 49.0275 96.0147 49.2408 95.9875C51.4761 95.815 53.6959 95.6153 55.9313 95.4563C56.4373 95.4292 56.9297 95.3361 57.4338 95.3226C57.2069 94.6304 57.0752 93.8724 56.7688 93.2346C51.9938 92.5037 47.2187 91.8523 42.4572 91.0671C43.6941 90.8674 44.9446 90.7743 46.1814 90.6406C51.5013 90.6406 56.8212 90.6813 62.141 90.6541C62.7653 90.6134 63.3779 90.7608 64.0022 90.7336C66.9277 90.7608 69.8551 90.7743 72.7806 90.786C73.4456 90.786 74.1241 90.8267 74.7891 90.7588C75.2021 88.0989 75.7198 85.4661 76.1715 82.8179C77.1157 77.8838 79.0718 73.0428 82.3967 69.2255C84.2579 66.9902 86.5591 65.129 89.1124 63.7196C90.5878 62.8685 92.2104 62.2966 93.8331 61.8041V61.808Z" fill="#107BD4" stroke="#107BD4" stroke-width="0.00581614" stroke-miterlimit="1.19"/>
<path d="M90.9873 89.3262C93.5135 89.3397 96.0551 89.3126 98.5948 89.3397C99.6048 89.3397 100.642 89.8981 101.055 90.8558C100.097 90.9217 99.1396 90.8694 98.1819 90.8965C95.6673 90.8694 93.1548 90.9101 90.6403 90.8694C90.7333 90.3498 90.8263 89.8186 90.9853 89.3262H90.9873ZM71.3695 101.788C71.7417 101.722 72.1139 101.722 72.4726 101.802C71.542 106.697 70.7045 111.618 69.7991 116.513C69.706 117.03 69.0546 116.846 68.696 116.806C68.6824 116.712 68.6688 116.513 68.6553 116.406C69.4928 111.724 70.305 107.031 71.1949 102.349C71.2608 102.162 71.3151 101.976 71.3675 101.79L71.3695 101.788Z" fill="#0D69B3" stroke="#0D69B3" stroke-width="0.00581614" stroke-miterlimit="1.19"/>
<path d="M92.1497 43.4735C92.0431 43.2738 92.0295 43.0354 92.0295 42.8085L91.9229 42.8221C91.7639 42.2366 91.2714 41.6783 90.6336 41.6511C90.1547 41.6104 89.5556 41.624 89.2765 42.0776C88.7453 42.795 88.9974 43.7139 88.9702 44.5243C88.9702 44.5767 88.9838 44.6697 88.9838 44.724C88.9838 45.2688 88.9179 45.8019 88.8248 46.3331C88.7453 46.4921 88.7046 46.6666 88.7046 46.8527C88.4778 48.1032 88.0261 49.3401 87.4154 50.4703C87.2952 50.6293 87.2021 50.8038 87.1633 50.9899C86.7639 51.682 86.2851 52.3199 85.7927 52.9577C85.7132 53.0236 85.6453 53.1031 85.5794 53.1845C85.2343 53.6111 84.8621 53.9697 84.4763 54.342C84.3832 54.3943 84.3173 54.4622 84.2378 54.5145C83.7861 54.9526 83.2801 55.3656 82.7353 55.6991C82.6694 55.7398 82.6015 55.7921 82.522 55.8445C79.1176 58.0914 74.9804 59.0239 70.9517 59.0627C67.5338 59.1694 64.0887 58.4385 61.0023 56.9612C60.9499 56.934 60.8162 56.8817 60.7638 56.8545C60.2462 56.5754 59.713 56.3349 59.2342 55.9899C59.1275 55.9375 59.021 55.8697 58.9008 55.8173C58.4083 55.5246 57.943 55.2047 57.5048 54.8324C57.3594 54.6987 57.1985 54.594 57.0396 54.4738C56.5607 54.088 56.0683 53.675 55.6573 53.2097C55.5507 53.0895 55.4441 52.9829 55.3374 52.8763C53.8873 51.3738 52.757 49.5378 52.1598 47.5429C51.5879 45.9609 51.6674 44.2316 51.6015 42.5681C51.1227 41.8372 50.1125 41.4243 49.3138 41.876C48.9803 42.1145 48.9416 42.5546 48.6896 42.8609C48.2766 47.2501 50.1533 51.6258 53.1447 54.7917C53.1447 54.8984 53.197 54.9643 53.292 55.005C53.8232 55.4974 54.3428 56.0034 54.874 56.4804C54.9671 56.5734 55.0737 56.6665 55.1939 56.746C55.7251 57.1841 56.2971 57.5835 56.8573 57.9964C56.964 58.0759 57.0705 58.1418 57.1907 58.2097C57.9216 58.6362 58.6138 59.1403 59.399 59.433C59.4513 59.4737 59.5444 59.5397 59.5987 59.5668C62.1249 60.7766 64.8526 61.6024 67.6444 61.868C67.9507 61.868 68.257 61.8952 68.5614 61.9611C69.8913 62.0406 71.2212 62.0018 72.5512 61.9747C76.6613 61.616 80.9032 60.6176 84.3347 58.1981L84.3754 58.2504C84.4821 58.1573 84.5751 58.0779 84.6818 57.9984C85.2266 57.599 85.7597 57.1744 86.2909 56.7343C86.4111 56.6413 86.5429 56.5346 86.6631 56.4144C87.2486 55.7766 87.9271 55.1911 88.4196 54.4602L88.4991 54.5009C88.5398 54.435 88.6057 54.3012 88.6464 54.2353C89.0981 53.6227 89.5111 52.9849 89.9104 52.347C89.9376 52.3063 90.0035 52.2404 90.0307 52.2016L89.9783 52.1493C90.019 52.0969 90.1121 51.9903 90.1509 51.936C90.8818 50.4471 91.5331 48.8903 91.76 47.2404C91.853 47.1997 91.9074 47.1202 91.9074 47.0272C91.9209 46.496 92.107 45.99 92.0547 45.4568C92.1729 44.8054 92.1865 44.1404 92.1594 43.4755L92.1497 43.4735Z" fill="white" stroke="white" stroke-width="0.00581614" stroke-miterlimit="1.19"/>
<mask id="mask0_3160_75" style="mask-type:luminance" maskUnits="userSpaceOnUse" x="48" y="41" width="45" height="22">
<path d="M92.1497 43.4735C92.0431 43.2738 92.0295 43.0354 92.0295 42.8085L91.9229 42.8221C91.7639 42.2366 91.2714 41.6783 90.6336 41.6511C90.1547 41.6104 89.5556 41.624 89.2765 42.0776C88.7453 42.795 88.9974 43.7139 88.9702 44.5243C88.9702 44.5767 88.9838 44.6697 88.9838 44.724C88.9838 45.2688 88.9179 45.8019 88.8248 46.3331C88.7453 46.4921 88.7046 46.6666 88.7046 46.8527C88.4778 48.1032 88.0261 49.3401 87.4154 50.4703C87.2952 50.6293 87.2021 50.8038 87.1633 50.9899C86.7639 51.682 86.2851 52.3199 85.7927 52.9577C85.7132 53.0236 85.6453 53.1031 85.5794 53.1845C85.2343 53.6111 84.8621 53.9697 84.4763 54.342C84.3832 54.3943 84.3173 54.4622 84.2378 54.5145C83.7861 54.9526 83.2801 55.3656 82.7353 55.6991C82.6694 55.7398 82.6015 55.7921 82.522 55.8445C79.1176 58.0914 74.9804 59.0239 70.9517 59.0627C67.5338 59.1694 64.0887 58.4385 61.0023 56.9612C60.9499 56.934 60.8162 56.8817 60.7638 56.8545C60.2462 56.5754 59.713 56.3349 59.2342 55.9899C59.1275 55.9375 59.021 55.8697 58.9008 55.8173C58.4083 55.5246 57.943 55.2047 57.5048 54.8324C57.3594 54.6987 57.1985 54.594 57.0396 54.4738C56.5607 54.088 56.0683 53.675 55.6573 53.2097C55.5507 53.0895 55.4441 52.9829 55.3374 52.8763C53.8873 51.3738 52.757 49.5378 52.1598 47.5429C51.5879 45.9609 51.6674 44.2316 51.6015 42.5681C51.1227 41.8372 50.1125 41.4243 49.3138 41.876C48.9803 42.1145 48.9416 42.5546 48.6896 42.8609C48.2766 47.2501 50.1533 51.6258 53.1447 54.7917C53.1447 54.8984 53.197 54.9643 53.292 55.005C53.8232 55.4974 54.3428 56.0034 54.874 56.4804C54.9671 56.5734 55.0737 56.6665 55.1939 56.746C55.7251 57.1841 56.2971 57.5835 56.8573 57.9964C56.964 58.0759 57.0705 58.1418 57.1907 58.2097C57.9216 58.6362 58.6138 59.1403 59.399 59.433C59.4513 59.4737 59.5444 59.5397 59.5987 59.5668C62.1249 60.7766 64.8526 61.6024 67.6444 61.868C67.9507 61.868 68.257 61.8952 68.5614 61.9611C69.8913 62.0406 71.2212 62.0018 72.5512 61.9747C76.6613 61.616 80.9032 60.6176 84.3347 58.1981L84.3754 58.2504C84.4821 58.1573 84.5751 58.0779 84.6818 57.9984C85.2266 57.599 85.7597 57.1744 86.2909 56.7343C86.4111 56.6413 86.5429 56.5346 86.6631 56.4144C87.2486 55.7766 87.9271 55.1911 88.4196 54.4602L88.4991 54.5009C88.5398 54.435 88.6057 54.3012 88.6464 54.2353C89.0981 53.6227 89.5111 52.9849 89.9104 52.347C89.9376 52.3063 90.0035 52.2404 90.0307 52.2016L89.9783 52.1493C90.019 52.0969 90.1121 51.9903 90.1509 51.936C90.8818 50.4471 91.5331 48.8903 91.76 47.2404C91.853 47.1997 91.9074 47.1202 91.9074 47.0272C91.9209 46.496 92.107 45.99 92.0547 45.4568C92.1729 44.8054 92.1865 44.1404 92.1594 43.4755L92.1497 43.4735Z" fill="white"/>
</mask>
<g mask="url(#mask0_3160_75)">
<path d="M47.6641 43.0235C48.742 43.3608 51.2196 42.5117 51.9195 43.2891M48.2844 46.3038C49.3177 45.9451 51.5337 45.094 52.4526 45.5942M49.3488 49.5841C49.849 49.745 50.8318 48.8687 51.3223 48.6108C52.0494 48.2289 52.7958 47.9342 53.6062 47.8102M50.9444 53.0427C51.4601 52.3099 52.0765 51.7031 52.821 51.1835C53.5577 50.6678 55.5759 49.2913 56.4425 49.7624M52.4526 55.5262C53.0381 55.061 53.2747 54.2389 53.8892 53.7504C54.6318 53.1591 55.7698 53.0544 56.5317 52.688M54.9574 57.3661C55.1319 56.0807 56.4386 54.5278 57.6833 54.6402M56.8865 59.1613C57.5457 59.0954 58.102 57.622 58.5479 57.1218C59.2149 56.3735 59.907 56.1428 60.7891 55.881M60.698 60.7569C60.6554 59.8263 61.617 57.1586 62.7376 57.2982M63.5362 61.6429C63.4897 60.5436 64.0578 57.2362 65.3974 57.1218M66.4618 63.4168C66.2079 61.8794 66.2233 59.6538 67.437 58.5409M70.0969 63.7716C69.9612 62.4901 68.6875 59.898 70.0969 58.8957M73.9976 62.8856C73.3889 62.1799 73.036 59.3998 73.288 58.6301M77.7219 62.2652C77.2527 61.4141 76.6711 60.6134 76.4947 59.6247C76.388 59.0334 76.5741 58.192 76.481 57.7422M80.8257 60.9353C79.8079 60.2703 79.5268 57.8236 79.8506 56.767M83.8404 59.6053C83.1173 58.0524 82.3457 56.8504 82.3321 55.0842M86.766 56.767C85.6415 56.0109 84.2069 54.6364 84.3717 53.1319M89.8698 54.3727C88.1618 53.9947 86.1107 52.465 85.0813 51.0924M91.289 51.4472C90.056 51.1835 85.9846 49.5938 86.2347 47.9885M92.6189 48.3433C90.9012 47.7132 88.4042 47.1471 87.0335 45.949M93.5049 45.507C92.4231 45.6 90.8741 45.0766 89.7749 44.8866C88.5535 44.6753 87.4232 44.2642 86.2347 44.0006M92.4406 42.7579C90.3545 42.8819 88.3964 42.1685 86.5004 41.5171" stroke="#D1D1D1" stroke-width="0.116323" stroke-miterlimit="1.19"/>
</g>
</g>
<defs>
<linearGradient id="paint0_linear_3160_75" x1="75.0522" y1="38.9205" x2="75.0522" y2="117.581" gradientUnits="userSpaceOnUse">
<stop stop-color="#F7E830"/>
<stop offset="1" stop-color="#FDCB06"/>
</linearGradient>
<radialGradient id="paint1_radial_3160_75" cx="0" cy="0" r="1" gradientUnits="userSpaceOnUse" gradientTransform="translate(74.641 74.7974) scale(63.9817 63.9816)">
<stop offset="0.6" stop-color="#F29405"/>
<stop offset="0.74" stop-color="#F7D01E"/>
<stop offset="1" stop-color="#FDCB06"/>
</radialGradient>
<linearGradient id="paint2_linear_3160_75" x1="96.9397" y1="41.7588" x2="96.9618" y2="45.484" gradientUnits="userSpaceOnUse">
<stop stop-color="#FADA1C"/>
<stop offset="1" stop-color="#FDCB06"/>
</linearGradient>
<linearGradient id="paint3_linear_3160_75" x1="48.544" y1="41.5806" x2="48.5219" y2="45.3059" gradientUnits="userSpaceOnUse">
<stop stop-color="#FADA1C"/>
<stop offset="1" stop-color="#FDCB06"/>
</linearGradient>
<clipPath id="clip0_3160_75">
<rect width="140" height="140" rx="30" fill="white"/>
</clipPath>
</defs>
</svg>
