<svg version="1.0" xmlns="http://www.w3.org/2000/svg"
 width="180" height="141" viewBox="0 0 1800 1407"
 preserveAspectRatio="xMidYMid meet">
<g transform="translate(0.000000,1407.000000) scale(0.100000,-0.100000)"
fill="currentColor" stroke="none">
<path d="M15010 14055 c0 -8 -39 -66 -87 -127 -49 -62 -99 -127 -113 -145 -73
-94 -194 -246 -263 -330 -42 -52 -95 -121 -117 -153 -22 -32 -70 -94 -107
-138 -81 -95 -143 -174 -239 -302 -39 -53 -110 -143 -158 -200 -48 -58 -125
-154 -170 -215 -46 -60 -94 -119 -106 -130 -12 -11 -40 -46 -62 -78 -22 -32
-99 -132 -171 -221 -73 -90 -154 -193 -182 -230 -27 -37 -68 -90 -90 -117 -49
-62 -83 -105 -177 -228 -40 -51 -107 -135 -148 -186 -150 -186 -216 -269 -282
-354 -37 -47 -92 -117 -122 -156 -30 -38 -79 -101 -108 -139 -87 -113 -263
-336 -320 -406 -29 -35 -82 -102 -117 -150 -35 -47 -85 -110 -110 -140 -26
-30 -57 -68 -68 -85 -27 -40 -307 -391 -380 -478 -32 -38 -74 -90 -93 -117
-33 -45 -62 -81 -258 -319 -135 -164 -184 -231 -180 -249 3 -15 30 -18 298
-25 162 -4 637 -5 1056 -2 868 6 817 10 774 -71 -13 -25 -46 -74 -72 -108 -27
-33 -68 -90 -93 -126 -124 -182 -254 -365 -369 -520 -39 -52 -78 -106 -87
-120 -9 -14 -48 -65 -87 -114 -51 -63 -72 -97 -72 -117 0 -16 17 -53 43 -91
184 -268 261 -382 317 -468 179 -271 294 -446 458 -689 75 -112 155 -231 176
-265 22 -34 83 -126 136 -206 53 -80 108 -165 122 -190 15 -25 50 -77 80 -117
29 -40 71 -100 92 -135 48 -77 327 -496 395 -593 27 -38 85 -126 129 -195 45
-69 94 -143 110 -165 15 -22 75 -112 131 -200 57 -88 154 -236 216 -330 62
-93 137 -208 166 -255 118 -190 152 -240 166 -240 7 0 35 30 61 66 26 36 75
102 110 147 35 44 74 102 88 128 l24 48 5 3018 c4 2432 2 3023 -8 3043 l-13
25 -800 0 c-848 0 -834 -1 -834 45 0 9 25 50 56 91 30 41 84 117 119 169 141
209 280 413 390 575 64 94 154 227 201 297 46 69 90 132 97 140 7 7 57 78 112
158 54 80 101 147 104 150 3 3 23 30 42 60 20 30 81 122 135 203 55 82 112
170 128 195 16 26 64 99 106 162 141 213 151 235 161 362 6 84 14 1363 10
1626 l-1 42 -75 0 c-60 0 -75 -3 -75 -15z"/>
<path d="M4592 12510 l-453 -5 -52 -56 c-29 -30 -110 -127 -182 -214 -71 -87
-157 -190 -190 -228 -33 -38 -95 -113 -138 -166 -96 -117 -191 -229 -318 -372
-94 -106 -129 -159 -129 -194 0 -29 35 -79 220 -315 97 -124 196 -252 220
-285 24 -33 59 -78 78 -100 34 -40 106 -133 307 -400 217 -288 272 -359 335
-439 36 -44 94 -119 128 -166 34 -47 90 -119 125 -161 34 -42 90 -114 124
-160 106 -142 395 -513 456 -584 19 -22 70 -89 113 -150 43 -60 101 -137 129
-171 27 -33 68 -84 90 -113 22 -29 78 -101 125 -160 47 -59 98 -127 114 -152
17 -24 41 -56 54 -71 25 -27 192 -245 305 -397 34 -46 115 -150 179 -231 64
-81 141 -180 170 -221 29 -41 96 -128 149 -194 52 -66 124 -158 160 -205 36
-47 86 -112 112 -145 26 -33 88 -116 139 -185 50 -69 104 -139 120 -156 16
-17 59 -71 96 -121 145 -197 200 -269 270 -357 40 -50 113 -143 162 -206 49
-63 109 -141 134 -173 105 -135 274 -356 316 -413 25 -34 65 -87 90 -119 25
-31 72 -92 105 -135 33 -43 121 -155 195 -249 74 -95 164 -214 200 -265 36
-52 92 -125 126 -162 33 -38 76 -91 94 -119 19 -27 57 -79 86 -115 90 -112
344 -443 454 -591 58 -78 139 -184 180 -235 118 -146 189 -237 310 -404 62
-85 123 -166 136 -180 30 -33 200 -253 304 -395 147 -199 245 -320 272 -333
21 -10 319 -12 1416 -12 845 0 1400 4 1415 9 28 11 133 129 182 205 18 28 57
81 86 117 159 194 328 409 353 445 15 23 54 73 87 110 33 38 84 105 114 149
73 109 74 124 12 217 -24 35 -77 105 -118 155 -41 50 -119 151 -174 223 -55
73 -120 158 -145 190 -124 160 -200 259 -228 302 -18 26 -80 107 -137 180
-160 202 -187 238 -236 306 -24 35 -62 86 -84 115 -160 205 -360 468 -581 762
-41 55 -141 187 -222 293 -81 106 -163 215 -183 242 -20 28 -54 71 -75 97 -41
50 -233 300 -337 441 -34 46 -83 111 -110 145 -26 34 -81 107 -122 162 -41 55
-87 116 -103 135 -30 37 -283 369 -364 480 -27 36 -84 110 -128 165 -141 177
-201 256 -263 344 -32 47 -76 106 -96 130 -65 79 -301 390 -379 501 -35 49
-145 195 -277 365 -47 61 -105 137 -129 170 -24 33 -98 130 -165 215 -130 166
-183 236 -349 457 -59 78 -141 185 -182 238 -131 167 -139 179 -177 235 -20
30 -56 75 -79 100 -23 25 -68 83 -99 129 -32 47 -94 130 -137 185 -164 210
-215 276 -268 350 -30 42 -98 134 -150 205 -52 70 -109 148 -127 172 -18 24
-62 82 -99 129 -36 47 -115 148 -175 225 -187 241 -314 408 -349 460 -18 28
-52 73 -75 100 -37 45 -103 132 -360 473 -124 165 -75 152 -554 154 -664 4
-1367 3 -1849 -2z"/>
<path d="M2508 10423 c-1 -16 -3 -921 -3 -2013 0 -1092 -2 -3420 -4 -5174 -2
-2019 1 -3192 7 -3198 6 -6 27 10 59 44 79 84 167 189 199 238 16 25 65 86
109 136 44 51 130 156 190 234 61 79 138 177 173 219 34 42 97 118 140 170 42
52 100 122 127 157 107 134 192 240 240 298 28 34 73 90 100 126 27 36 67 85
90 110 22 25 73 88 112 140 39 52 84 109 100 126 16 17 62 73 103 125 40 52
110 138 154 191 194 232 243 292 274 336 37 52 137 168 164 192 10 8 44 52 75
97 59 84 154 203 304 382 30 35 70 85 89 111 19 26 81 105 137 176 130 164
137 172 157 211 14 29 16 117 16 940 0 983 -3 1047 -48 1123 -15 25 -36 62
-47 83 -11 21 -37 61 -58 88 -50 66 -125 178 -426 634 -138 209 -271 409 -296
445 -25 36 -98 144 -162 240 -63 96 -159 240 -213 320 -53 80 -127 190 -164
245 -36 55 -116 172 -177 260 -104 152 -171 251 -252 375 -20 30 -56 83 -81
117 -25 34 -68 100 -96 145 -28 46 -76 119 -107 163 -31 44 -82 119 -112 167
-31 47 -91 137 -134 200 -43 62 -99 147 -125 188 -26 41 -109 164 -185 273
-76 109 -159 233 -184 275 -103 174 -204 312 -229 312 -8 0 -15 -11 -16 -27z"/>
</g>
</svg>
