<svg version="1.0" xmlns="http://www.w3.org/2000/svg"
 width="60" height="47" viewBox="0 0 600 469"
 preserveAspectRatio="xMidYMid meet">
<g transform="translate(0.000000,469.000000) scale(0.100000,-0.100000)"
fill="currentColor" stroke="none">
<path d="M4888 4534 c-68 -86 -150 -191 -183 -233 -33 -43 -159 -202 -280
-355 -121 -154 -255 -324 -298 -380 -194 -249 -439 -557 -494 -620 -24 -26
-43 -52 -43 -58 0 -5 142 -8 365 -6 211 2 365 -1 365 -6 0 -5 -15 -27 -33 -50
-18 -23 -55 -72 -82 -111 -27 -38 -75 -106 -108 -149 l-59 -79 23 -31 c52 -70
863 -1294 881 -1330 l15 -28 39 53 c21 30 43 59 47 66 4 7 10 472 13 1033 l4
1020 -280 0 c-295 0 -301 1 -261 44 21 24 177 249 386 561 119 176 143 218
148 259 4 27 7 163 7 302 l0 254 -24 0 c-20 0 -49 -31 -148 -156z m132 -169
c0 -162 -4 -246 -11 -250 -6 -4 -8 -14 -5 -22 3 -8 1 -11 -4 -8 -6 3 -10 -1
-10 -9 0 -8 -6 -21 -13 -28 -6 -7 -21 -30 -32 -50 -11 -21 -23 -38 -27 -38 -3
0 -10 -9 -13 -20 -4 -11 -11 -18 -16 -15 -5 3 -7 0 -4 -7 3 -7 -8 -29 -25 -48
-46 -53 -51 -60 -44 -60 3 0 -5 -15 -19 -33 -14 -18 -40 -55 -58 -83 -35 -51
-37 -53 -69 -93 -11 -13 -20 -28 -20 -33 0 -5 -6 -16 -12 -23 -30 -32 -108
-153 -108 -166 0 -6 -4 -8 -9 -5 -5 4 -12 -8 -16 -25 -5 -20 -10 -27 -15 -19
-5 7 -9 0 -12 -21 -4 -25 0 -38 18 -56 23 -23 25 -23 274 -23 l250 0 -2 -999
c-3 -962 -4 -1000 -22 -1020 -10 -11 -23 -18 -27 -15 -5 3 -6 -3 -3 -13 5 -15
3 -15 -10 2 -8 11 -19 25 -24 30 -20 24 -82 126 -82 136 0 6 -5 7 -12 3 -8 -5
-9 -2 -5 9 3 10 3 17 -2 17 -5 0 -37 44 -72 98 -35 53 -74 111 -88 128 -13 17
-23 35 -22 39 2 4 -1 11 -6 14 -14 11 -93 129 -93 140 0 6 -4 11 -10 11 -5 0
-10 6 -10 14 0 8 -3 16 -7 18 -11 4 -141 200 -150 224 -3 10 -14 26 -23 34
-19 18 -120 169 -123 184 -1 6 -5 13 -8 16 -3 3 -20 28 -39 55 -19 28 -37 52
-40 55 -4 3 -9 12 -13 20 -4 8 -14 24 -22 36 -14 19 -12 24 18 69 17 27 38 59
45 72 7 13 17 23 21 23 5 0 25 28 47 63 21 34 43 67 49 72 28 24 57 86 51 110
-4 14 -11 25 -17 25 -6 0 -7 5 -3 12 4 7 3 8 -4 4 -6 -4 -21 -2 -33 5 -17 9
-20 8 -14 -3 6 -9 5 -10 -3 -3 -8 7 -44 8 -104 3 -100 -8 -452 -3 -468 7 -5 3
-10 1 -10 -6 0 -7 -3 -9 -6 -6 -4 4 1 19 11 34 19 29 106 136 134 165 9 9 27
33 41 52 14 20 30 34 35 32 6 -2 12 5 12 17 1 11 15 34 31 51 16 17 44 53 63
80 19 27 43 59 54 71 11 12 29 34 40 50 11 16 26 34 33 41 6 7 12 17 12 22 0
6 7 12 15 16 8 3 15 13 15 21 0 9 4 14 8 11 5 -3 17 9 27 26 10 17 25 39 34
49 9 11 24 28 34 39 9 11 17 25 17 30 0 6 4 10 8 10 5 0 21 18 38 41 16 22 44
58 62 79 19 21 34 42 35 47 1 4 13 20 27 34 41 41 70 78 70 89 0 6 8 10 18 10
14 0 15 2 2 10 -10 7 -11 10 -2 10 7 0 17 11 24 25 6 13 15 22 19 19 5 -3 9 0
9 5 0 6 24 39 53 73 29 35 62 76 72 92 18 27 28 39 94 116 17 19 31 40 31 47
0 7 9 17 20 23 11 6 20 16 20 23 0 7 20 33 44 60 25 26 48 56 51 67 4 11 12
17 21 13 12 -4 14 -45 14 -248z"/>
<path d="M1389 4171 c-15 -6 -109 -113 -223 -255 -27 -34 -66 -80 -88 -103
-21 -24 -38 -46 -38 -50 0 -5 33 -49 73 -99 39 -51 121 -156 181 -235 61 -79
142 -185 180 -235 183 -236 296 -382 351 -452 33 -42 98 -127 145 -188 47 -62
119 -156 160 -209 116 -150 225 -291 300 -390 71 -93 103 -135 318 -412 70
-91 138 -180 152 -198 14 -19 44 -58 66 -87 41 -52 199 -258 383 -500 52 -67
116 -151 143 -185 l50 -63 474 0 474 0 55 73 c30 39 82 106 115 147 83 104
120 156 120 171 0 7 -17 33 -38 58 -51 62 -117 148 -177 230 -27 38 -108 144
-179 237 -186 242 -552 723 -951 1249 -113 149 -261 344 -331 435 -69 91 -211
278 -315 415 -103 138 -257 340 -341 450 l-153 200 -445 1 c-245 1 -452 -2
-461 -5z m876 -37 c11 -3 36 -27 55 -54 19 -28 43 -60 54 -72 10 -13 30 -39
45 -58 14 -19 32 -39 38 -43 7 -4 13 -14 13 -21 0 -7 9 -21 20 -31 11 -10 20
-24 20 -32 0 -8 4 -12 8 -9 4 2 18 -12 32 -32 13 -20 32 -46 42 -57 49 -55 69
-86 62 -97 -4 -7 -4 -10 1 -6 4 4 38 -34 76 -85 37 -50 78 -104 92 -118 14
-15 37 -46 53 -70 15 -24 31 -47 37 -50 5 -4 6 -12 2 -19 -5 -8 -4 -11 2 -7
12 7 63 -50 63 -70 0 -7 4 -13 9 -13 5 0 19 -15 32 -34 13 -19 28 -32 33 -29
5 4 7 -1 3 -10 -3 -10 -2 -17 2 -17 11 0 81 -96 81 -110 0 -5 9 -15 20 -22 11
-7 20 -19 20 -26 0 -7 4 -11 9 -7 5 3 12 -4 16 -15 3 -11 11 -20 16 -20 5 0 9
-5 9 -10 0 -6 43 -64 95 -129 52 -65 95 -122 95 -127 0 -5 11 -21 25 -36 14
-15 25 -32 25 -37 0 -6 6 -14 13 -18 7 -4 24 -24 37 -43 13 -19 30 -41 37 -48
7 -7 13 -17 13 -21 0 -4 15 -22 32 -40 18 -18 33 -41 33 -50 0 -9 6 -15 13
-13 6 1 12 -2 12 -6 0 -5 8 -17 19 -28 10 -11 30 -38 44 -60 13 -21 35 -50 47
-64 12 -14 36 -45 53 -70 17 -25 37 -49 44 -53 7 -4 13 -14 13 -22 0 -7 4 -15
9 -17 13 -4 111 -136 111 -149 0 -6 5 -7 12 -3 8 5 9 2 5 -10 -4 -9 -3 -15 2
-12 8 6 67 -73 64 -85 -1 -3 9 -12 22 -19 14 -7 25 -17 25 -21 0 -4 12 -21 26
-38 14 -17 22 -31 18 -31 -4 0 2 -8 13 -18 10 -9 34 -39 53 -66 18 -27 40 -57
49 -66 46 -49 73 -86 74 -101 1 -10 5 -15 10 -12 4 3 11 -4 14 -16 3 -12 9
-21 14 -21 5 0 15 -13 24 -30 8 -16 27 -41 41 -55 14 -14 22 -30 18 -37 -4 -6
-3 -8 3 -5 5 3 25 -14 43 -38 19 -25 37 -45 42 -45 4 0 4 -7 1 -17 -4 -11 -3
-14 5 -9 7 4 12 3 12 -3 0 -5 18 -32 40 -60 22 -28 40 -55 40 -61 0 -6 5 -8
10 -5 6 3 10 -1 10 -9 0 -9 4 -16 10 -16 16 0 32 -40 26 -64 -3 -13 -20 -39
-38 -58 -18 -20 -42 -48 -53 -64 -11 -15 -40 -54 -65 -87 -25 -32 -53 -71 -62
-85 -10 -15 -18 -23 -18 -18 0 6 -6 2 -12 -7 -12 -15 -53 -17 -453 -17 -242 0
-444 0 -450 1 -5 1 -13 1 -17 0 -5 0 -8 3 -8 8 0 5 -14 24 -31 43 -17 18 -51
60 -75 93 -25 33 -75 100 -112 149 -37 49 -66 93 -65 97 2 5 -4 9 -13 9 -8 0
-13 4 -10 9 3 5 0 11 -7 14 -7 3 -26 24 -42 48 -29 43 -85 119 -95 129 -21 21
-70 91 -70 100 0 6 -4 9 -9 6 -5 -3 -15 2 -22 11 -10 12 -10 14 -1 9 6 -4 12
-3 12 2 0 5 -11 14 -23 21 -13 7 -37 34 -53 61 -16 26 -32 46 -36 43 -5 -2 -8
2 -8 9 0 7 -25 44 -55 81 -30 38 -55 73 -55 78 0 5 -6 9 -13 9 -8 0 -19 10
-24 23 -6 12 -18 31 -27 42 -9 11 -38 49 -64 85 -26 35 -56 73 -67 85 -11 11
-29 33 -40 49 -11 16 -28 37 -37 48 -10 10 -18 21 -18 24 0 3 -16 22 -35 42
-19 20 -35 45 -35 55 0 9 -4 17 -10 17 -5 0 -21 17 -34 38 -13 20 -33 47 -45
59 -12 12 -21 26 -21 32 0 5 -4 11 -8 13 -4 2 -23 23 -42 48 -19 24 -39 50
-45 56 -5 6 -17 22 -25 34 -8 12 -25 34 -38 48 -12 15 -25 35 -28 45 -3 9 -10
17 -15 17 -13 0 -50 63 -45 77 3 7 -1 10 -8 7 -8 -3 -29 16 -51 45 -20 28 -40
51 -43 51 -4 0 -18 18 -32 40 -13 22 -28 40 -32 40 -4 0 -8 7 -8 16 0 9 -5 12
-12 8 -7 -5 -8 -3 -3 5 4 8 -1 18 -14 27 -12 8 -21 20 -21 26 0 5 -9 20 -19
32 -11 11 -57 68 -103 126 -45 58 -85 107 -88 110 -3 3 -14 18 -23 33 -10 16
-25 36 -32 45 -8 9 -41 53 -74 97 -33 44 -67 87 -76 96 -8 9 -15 20 -15 26 0
5 -10 19 -22 31 -26 24 -36 36 -62 77 -11 17 -30 38 -43 49 -17 13 -22 24 -18
40 5 15 4 17 -3 8 -7 -11 -16 -4 -38 29 -16 23 -41 55 -56 70 -16 15 -28 31
-28 36 0 6 -9 18 -20 28 -11 10 -17 21 -15 25 3 5 0 10 -7 12 -13 5 16 52 67
105 45 47 55 61 55 72 0 6 9 16 20 23 12 7 48 48 82 91 34 43 68 82 76 86 15
9 835 14 867 5z"/>
<path d="M835 1755 c0 -960 3 -1745 6 -1745 3 0 23 23 45 50 21 28 66 84 99
124 88 109 113 140 300 371 93 115 200 248 238 295 207 254 305 376 329 409
l27 36 0 315 c0 236 -3 324 -13 350 -7 19 -119 193 -248 385 -129 193 -355
530 -502 750 -147 220 -271 401 -274 402 -4 2 -7 -782 -7 -1742z m85 1560 c4
3 11 -2 14 -10 9 -23 96 -157 119 -182 11 -13 17 -23 13 -23 -4 0 5 -12 19
-27 14 -15 25 -33 25 -39 0 -6 9 -19 20 -29 11 -10 20 -22 20 -28 0 -5 16 -31
36 -58 20 -28 32 -54 28 -60 -4 -7 -3 -9 4 -5 11 6 54 -49 85 -111 9 -17 23
-37 30 -45 18 -18 97 -135 97 -144 0 -4 7 -14 16 -23 30 -31 95 -141 89 -151
-3 -5 0 -7 9 -4 9 3 17 -3 21 -17 4 -13 20 -37 36 -53 16 -17 29 -39 29 -49 0
-10 4 -16 9 -12 5 3 13 -5 17 -17 7 -25 93 -151 106 -156 4 -2 8 -12 8 -22 0
-10 4 -20 8 -22 4 -1 19 -21 32 -43 l25 -40 3 -318 3 -319 -28 -36 c-15 -21
-33 -43 -40 -50 -7 -7 -13 -16 -13 -20 0 -6 -35 -50 -73 -92 -8 -8 -24 -30
-37 -48 -18 -24 -26 -29 -33 -20 -6 9 -7 8 -3 -5 6 -18 -8 -40 -61 -94 -18
-18 -33 -36 -33 -40 -1 -16 -50 -64 -59 -58 -5 3 -13 0 -17 -6 -4 -8 -3 -9 4
-5 23 14 12 -11 -18 -39 -16 -15 -27 -33 -23 -38 3 -6 1 -7 -5 -3 -6 4 -17 -6
-26 -22 -8 -16 -26 -40 -40 -53 -14 -13 -26 -30 -26 -36 0 -7 -6 -13 -14 -13
-8 0 -17 -11 -20 -24 -3 -14 -15 -28 -26 -31 -11 -3 -20 -13 -20 -22 0 -12
-37 -60 -175 -222 -11 -13 -26 -30 -33 -37 -7 -8 -11 -14 -7 -14 6 0 0 -8 -43
-57 -16 -17 -39 -45 -53 -62 -13 -17 -30 -31 -37 -31 -10 0 -11 312 -8 1588 3
873 8 1595 12 1606 6 16 8 17 16 2 5 -9 13 -14 18 -11z"/>
</g>
</svg>
